<svg id="svg" version="1.1" xmlns="http://www.w3.org/2000/svg" xmlns:xlink="http://www.w3.org/1999/xlink" width="400" height="84.0625" viewBox="0, 0, 400,84.0625"><g id="svgg"><path id="path0" d="M10.250 1.833 C 10.193 1.925,9.998 2.000,9.817 2.000 C 9.635 2.000,9.325 2.150,9.128 2.333 C 8.931 2.517,8.672 2.667,8.552 2.667 C 8.432 2.667,8.333 2.742,8.333 2.833 C 8.333 2.925,8.146 3.000,7.917 3.000 C 7.688 3.000,7.500 3.075,7.500 3.167 C 7.500 3.258,7.402 3.333,7.281 3.333 C 7.161 3.333,6.917 3.467,6.740 3.630 C 6.562 3.794,6.132 4.102,5.783 4.316 C 5.435 4.530,5.032 4.883,4.889 5.102 C 4.746 5.321,4.530 5.500,4.409 5.500 C 4.288 5.500,4.142 5.650,4.083 5.833 C 4.025 6.017,3.908 6.167,3.822 6.167 C 3.737 6.167,3.667 6.239,3.667 6.327 C 3.667 6.415,3.367 6.784,3.000 7.147 C 2.633 7.510,2.333 7.919,2.333 8.056 C 2.333 8.193,2.270 8.331,2.192 8.361 C 1.938 8.460,1.167 9.817,1.167 10.163 C 1.167 10.349,1.092 10.500,1.000 10.500 C 0.908 10.500,0.833 10.650,0.833 10.833 C 0.833 11.017,0.758 11.167,0.667 11.167 C 0.575 11.167,0.500 11.310,0.500 11.486 C 0.500 11.662,0.406 11.837,0.292 11.875 C 0.126 11.930,0.083 18.009,0.083 41.525 L 0.083 71.106 0.500 71.928 C 0.729 72.380,0.973 72.775,1.042 72.806 C 1.110 72.836,1.167 73.047,1.167 73.275 C 1.167 73.768,1.405 74.246,1.940 74.822 C 2.156 75.056,2.333 75.370,2.333 75.520 C 2.333 75.670,2.633 76.102,3.000 76.480 C 3.367 76.858,3.667 77.206,3.667 77.254 C 3.667 77.420,5.585 79.157,5.774 79.162 C 5.879 79.165,6.205 79.391,6.499 79.666 C 6.793 79.941,7.101 80.124,7.184 80.073 C 7.266 80.022,7.333 80.060,7.333 80.157 C 7.333 80.254,7.474 80.333,7.646 80.333 C 7.818 80.333,8.051 80.444,8.164 80.580 C 8.406 80.872,9.291 81.333,9.609 81.333 C 9.732 81.333,9.833 81.392,9.833 81.465 C 9.833 81.537,10.074 81.614,10.368 81.637 C 10.663 81.659,10.962 81.769,11.033 81.880 C 11.104 81.992,11.163 82.025,11.164 81.954 C 11.166 81.883,11.388 81.939,11.658 82.079 C 12.537 82.533,68.260 82.457,69.206 82.000 C 69.585 81.817,70.069 81.667,70.281 81.667 C 70.493 81.667,70.667 81.592,70.667 81.500 C 70.667 81.408,70.814 81.333,70.995 81.333 C 71.310 81.333,72.493 80.752,72.667 80.513 C 72.712 80.450,72.975 80.306,73.250 80.194 C 73.525 80.081,74.049 79.729,74.415 79.411 C 74.781 79.093,75.140 78.833,75.213 78.833 C 75.379 78.833,77.365 76.834,77.202 76.831 C 77.137 76.829,77.313 76.623,77.594 76.372 C 77.875 76.122,78.288 75.579,78.511 75.167 C 78.734 74.754,78.973 74.392,79.042 74.361 C 79.110 74.331,79.167 74.199,79.167 74.069 C 79.167 73.940,79.242 73.833,79.333 73.833 C 79.425 73.833,79.500 73.683,79.500 73.500 C 79.500 73.317,79.594 73.166,79.708 73.164 C 79.847 73.162,79.833 73.108,79.667 73.000 C 79.529 72.911,79.497 72.837,79.594 72.836 C 79.692 72.834,79.935 72.526,80.136 72.151 L 80.500 71.468 80.500 41.744 C 80.500 22.108,80.443 11.985,80.333 11.917 C 80.242 11.860,80.167 11.668,80.167 11.490 C 80.167 11.312,80.092 11.167,80.000 11.167 C 79.908 11.167,79.833 11.025,79.833 10.852 C 79.833 9.506,76.038 4.878,74.133 3.902 C 73.831 3.747,73.546 3.564,73.500 3.496 C 73.303 3.203,70.972 2.000,70.601 2.000 C 70.465 2.000,70.307 1.925,70.250 1.833 C 70.107 1.603,10.393 1.603,10.250 1.833 M39.539 9.988 C 40.218 10.596,40.224 11.328,39.584 15.583 C 37.814 27.360,37.830 27.189,38.487 27.846 L 38.974 28.333 41.529 28.333 C 44.866 28.332,45.648 27.888,45.926 25.839 C 45.983 25.423,46.281 23.358,46.590 21.250 C 46.899 19.142,47.343 16.039,47.577 14.356 C 48.239 9.593,48.332 9.500,52.414 9.500 L 55.033 9.500 55.624 10.090 C 56.366 10.833,56.321 11.361,54.414 24.448 C 54.054 26.922,54.078 27.270,54.654 27.846 L 55.141 28.333 58.112 28.334 C 62.714 28.334,62.873 28.485,62.797 32.789 L 62.750 35.494 62.206 36.039 L 61.661 36.583 57.756 36.667 L 53.851 36.750 53.256 37.327 C 52.555 38.007,52.445 38.377,52.086 41.257 C 51.642 44.829,51.702 44.886,56.059 45.000 C 60.539 45.117,60.477 45.061,60.513 49.045 C 60.553 53.278,60.485 53.333,55.300 53.333 C 50.442 53.333,50.184 53.472,49.834 56.261 C 49.731 57.080,49.465 59.100,49.243 60.750 C 49.021 62.400,48.647 65.287,48.412 67.167 C 47.612 73.554,47.739 73.385,43.647 73.473 C 38.758 73.577,38.923 74.109,40.496 63.333 C 42.052 52.674,42.215 53.271,37.772 53.363 L 35.188 53.417 34.689 53.895 C 34.006 54.550,33.888 54.925,33.581 57.417 C 33.434 58.608,33.165 60.633,32.984 61.917 C 32.802 63.200,32.465 65.712,32.234 67.500 C 31.455 73.551,31.568 73.417,27.230 73.417 C 24.400 73.417,24.354 73.411,23.913 73.000 C 23.036 72.185,23.036 72.340,23.912 66.750 C 24.128 65.375,24.466 63.050,24.665 61.583 C 24.863 60.117,25.132 58.288,25.263 57.520 C 25.649 55.246,25.592 54.400,25.013 53.821 L 24.526 53.333 21.580 53.333 C 17.041 53.333,16.908 53.215,16.932 49.167 C 16.956 45.017,16.973 45.002,21.667 45.000 C 26.653 44.997,27.090 44.773,27.579 41.964 C 28.116 38.882,28.107 37.958,27.536 37.319 L 27.028 36.750 23.777 36.667 C 19.330 36.553,19.255 36.476,19.359 32.151 C 19.449 28.382,19.516 28.333,24.578 28.333 C 30.029 28.333,29.621 28.945,30.919 18.833 C 32.170 9.092,31.932 9.500,36.370 9.500 L 38.995 9.500 39.539 9.988 M46.167 32.450 C 36.508 33.198,31.682 37.213,31.382 44.750 C 31.228 48.613,31.605 48.964,36.093 49.125 C 42.428 49.353,46.450 45.558,48.590 37.333 C 49.305 34.586,49.799 33.782,51.215 33.061 C 51.653 32.838,51.968 32.582,51.913 32.494 C 51.820 32.344,47.922 32.314,46.167 32.450 " stroke="none" fill="#604dc3" fill-rule="evenodd"></path><path id="path1" d="M33.164 9.811 C 32.072 10.394,31.929 10.970,30.919 18.833 C 29.958 26.319,29.822 26.992,29.143 27.604 C 28.379 28.293,28.127 28.333,24.578 28.333 C 19.516 28.333,19.449 28.382,19.359 32.151 C 19.255 36.476,19.330 36.553,23.777 36.667 L 27.028 36.750 27.536 37.319 C 28.107 37.958,28.116 38.882,27.579 41.964 C 27.090 44.773,26.653 44.997,21.667 45.000 C 16.973 45.002,16.956 45.017,16.932 49.167 C 16.908 53.215,17.041 53.333,21.580 53.333 L 24.526 53.333 25.013 53.821 C 25.592 54.400,25.649 55.246,25.263 57.520 C 25.132 58.288,24.863 60.117,24.665 61.583 C 24.466 63.050,24.128 65.375,23.912 66.750 C 23.036 72.340,23.036 72.185,23.913 73.000 C 24.354 73.411,24.400 73.417,27.230 73.417 C 31.568 73.417,31.455 73.551,32.234 67.500 C 32.465 65.712,32.802 63.200,32.984 61.917 C 33.165 60.633,33.434 58.608,33.581 57.417 C 33.888 54.925,34.006 54.550,34.689 53.895 L 35.188 53.417 37.772 53.363 C 42.215 53.271,42.052 52.674,40.496 63.333 C 38.923 74.109,38.758 73.577,43.647 73.473 C 47.739 73.385,47.612 73.554,48.412 67.167 C 48.647 65.287,49.021 62.400,49.243 60.750 C 49.465 59.100,49.731 57.080,49.834 56.261 C 50.184 53.472,50.442 53.333,55.300 53.333 C 60.485 53.333,60.553 53.278,60.513 49.045 C 60.477 45.061,60.539 45.117,56.059 45.000 C 51.702 44.886,51.642 44.829,52.086 41.257 C 52.445 38.377,52.555 38.007,53.256 37.327 L 53.851 36.750 57.756 36.667 L 61.661 36.583 62.206 36.039 L 62.750 35.494 62.797 32.789 C 62.873 28.485,62.714 28.334,58.112 28.334 L 55.141 28.333 54.654 27.846 C 54.078 27.270,54.054 26.922,54.414 24.448 C 56.321 11.361,56.366 10.833,55.624 10.090 L 55.033 9.500 52.414 9.500 C 48.332 9.500,48.239 9.593,47.577 14.356 C 47.343 16.039,46.899 19.142,46.590 21.250 C 46.281 23.358,45.983 25.423,45.926 25.839 C 45.648 27.888,44.866 28.332,41.529 28.333 L 38.974 28.333 38.487 27.846 C 37.830 27.189,37.814 27.360,39.584 15.583 C 40.224 11.328,40.218 10.596,39.539 9.988 L 38.995 9.500 36.370 9.500 C 34.128 9.500,33.660 9.545,33.164 9.811 M203.000 19.696 C 203.000 19.772,202.588 19.833,202.083 19.833 C 201.579 19.833,201.167 19.908,201.167 20.000 C 201.167 20.092,201.033 20.167,200.870 20.167 C 200.707 20.167,200.465 20.317,200.333 20.500 C 200.201 20.683,199.978 20.836,199.838 20.840 C 199.490 20.848,198.667 22.075,198.667 22.586 C 198.667 22.814,198.592 23.000,198.500 23.000 C 198.287 23.000,198.278 25.735,198.490 26.127 C 198.576 26.286,198.692 26.633,198.749 26.897 C 198.865 27.443,200.172 28.833,200.570 28.833 C 200.715 28.833,200.833 28.908,200.833 29.000 C 200.833 29.092,200.983 29.167,201.167 29.167 C 201.350 29.167,201.500 29.242,201.500 29.333 C 201.500 29.436,202.358 29.500,203.740 29.500 C 205.054 29.500,206.023 29.431,206.083 29.333 C 206.140 29.242,206.369 29.167,206.593 29.167 C 206.817 29.167,207.000 29.092,207.000 29.000 C 207.000 28.908,207.117 28.833,207.260 28.833 C 207.403 28.833,207.473 28.758,207.417 28.667 C 207.360 28.575,207.432 28.500,207.576 28.500 C 207.874 28.500,208.821 27.524,208.828 27.208 C 208.831 27.094,208.908 27.000,209.000 27.000 C 209.092 27.000,209.167 26.817,209.167 26.593 C 209.167 26.369,209.242 26.140,209.333 26.083 C 209.425 26.027,209.500 25.314,209.500 24.500 C 209.500 23.686,209.425 22.973,209.333 22.917 C 209.242 22.860,209.167 22.668,209.167 22.490 C 209.167 22.312,209.092 22.167,209.000 22.167 C 208.908 22.167,208.833 22.066,208.833 21.943 C 208.833 21.518,207.124 20.167,206.586 20.167 C 206.447 20.167,206.333 20.092,206.333 20.000 C 206.333 19.908,206.000 19.833,205.593 19.833 C 205.186 19.833,204.805 19.755,204.745 19.659 C 204.621 19.457,203.000 19.492,203.000 19.696 M105.167 20.667 C 105.167 20.758,104.923 20.832,104.625 20.830 C 103.905 20.827,101.500 21.369,101.500 21.536 C 101.500 21.608,101.275 21.667,101.000 21.667 C 100.725 21.667,100.500 21.742,100.500 21.833 C 100.500 21.925,100.350 22.000,100.167 22.000 C 99.983 22.000,99.833 22.061,99.833 22.136 C 99.833 22.210,99.571 22.374,99.250 22.500 C 98.929 22.626,98.667 22.790,98.667 22.864 C 98.667 22.939,98.517 23.000,98.333 23.000 C 98.150 23.000,98.000 23.059,98.000 23.131 C 98.000 23.203,97.756 23.403,97.458 23.576 C 96.874 23.915,94.833 25.917,94.833 26.150 C 94.833 26.229,94.720 26.387,94.581 26.502 C 94.302 26.733,93.667 28.079,93.667 28.438 C 93.667 28.564,93.592 28.667,93.500 28.667 C 93.408 28.667,93.333 28.854,93.333 29.083 C 93.333 29.313,93.258 29.500,93.167 29.500 C 93.075 29.500,93.000 29.710,93.000 29.967 C 93.000 30.223,92.930 30.505,92.845 30.592 C 92.720 30.720,92.513 32.773,92.518 33.833 C 92.525 35.139,92.721 37.282,92.845 37.408 C 92.930 37.495,93.000 37.777,93.000 38.033 C 93.000 38.290,93.075 38.500,93.167 38.500 C 93.258 38.500,93.333 38.635,93.333 38.801 C 93.333 39.694,95.079 42.038,96.583 43.167 C 97.204 43.632,99.478 44.680,100.583 45.010 C 100.950 45.120,101.418 45.273,101.624 45.351 C 101.830 45.428,102.599 45.542,103.332 45.603 C 104.066 45.665,104.667 45.779,104.667 45.857 C 104.667 45.936,105.154 46.000,105.750 46.000 C 106.361 46.000,106.833 46.073,106.833 46.167 C 106.833 46.261,107.306 46.333,107.917 46.333 C 108.528 46.333,109.000 46.406,109.000 46.500 C 109.000 46.592,109.441 46.667,109.990 46.667 C 110.535 46.667,111.027 46.742,111.083 46.833 C 111.140 46.925,111.477 47.000,111.833 47.000 C 112.189 47.000,112.527 47.075,112.583 47.167 C 112.640 47.258,112.908 47.333,113.179 47.333 C 113.450 47.333,113.801 47.404,113.961 47.490 C 114.120 47.576,114.606 47.774,115.042 47.929 C 115.477 48.085,115.833 48.277,115.833 48.356 C 115.833 48.435,115.965 48.501,116.125 48.502 C 116.793 48.506,117.667 50.197,117.667 51.486 C 117.667 52.162,117.595 52.667,117.500 52.667 C 117.408 52.667,117.333 52.816,117.333 52.998 C 117.333 53.342,117.067 53.732,116.303 54.511 C 116.057 54.762,115.901 55.012,115.956 55.067 C 116.011 55.122,115.931 55.167,115.778 55.167 C 115.625 55.167,115.500 55.223,115.500 55.293 C 115.500 55.430,114.523 55.805,113.792 55.948 C 113.540 55.997,113.333 56.104,113.333 56.186 C 113.333 56.267,112.963 56.333,112.510 56.333 C 112.057 56.333,111.640 56.408,111.583 56.500 C 111.527 56.592,110.810 56.667,109.990 56.667 C 109.108 56.667,108.500 56.599,108.500 56.500 C 108.500 56.408,108.087 56.333,107.583 56.333 C 107.079 56.333,106.667 56.275,106.667 56.203 C 106.667 56.131,106.325 55.972,105.907 55.849 C 105.490 55.725,105.045 55.521,104.919 55.396 C 104.793 55.270,104.591 55.166,104.470 55.165 C 104.349 55.164,104.063 54.926,103.833 54.636 C 103.604 54.346,103.337 54.027,103.240 53.929 C 103.142 53.831,102.955 53.506,102.824 53.208 C 102.693 52.910,102.529 52.667,102.459 52.667 C 102.390 52.667,102.333 52.442,102.333 52.167 C 102.333 51.892,102.258 51.667,102.167 51.667 C 102.075 51.667,102.000 51.404,102.000 51.083 C 102.000 50.762,101.925 50.500,101.833 50.500 C 101.742 50.500,101.667 50.274,101.667 49.998 L 101.667 49.495 96.542 49.539 L 91.417 49.583 91.434 50.500 C 91.460 51.900,91.699 53.834,91.858 53.932 C 91.936 53.980,92.000 54.236,92.000 54.500 C 92.000 54.764,92.075 55.027,92.167 55.083 C 92.258 55.140,92.333 55.369,92.333 55.593 C 92.333 55.817,92.408 56.000,92.500 56.000 C 92.592 56.000,92.667 56.110,92.667 56.245 C 92.667 56.486,93.272 57.671,93.478 57.833 C 93.536 57.879,93.690 58.122,93.820 58.374 C 94.243 59.196,96.768 61.560,97.041 61.391 C 97.139 61.331,97.172 61.357,97.115 61.449 C 97.058 61.541,97.215 61.719,97.464 61.844 C 97.713 61.969,98.104 62.196,98.333 62.348 C 98.563 62.501,98.993 62.678,99.290 62.742 C 99.587 62.806,99.872 62.928,99.925 63.013 C 99.977 63.097,100.203 63.167,100.427 63.167 C 100.650 63.167,100.833 63.242,100.833 63.333 C 100.833 63.425,101.058 63.500,101.333 63.500 C 101.608 63.500,101.833 63.575,101.833 63.667 C 101.833 63.758,102.091 63.833,102.407 63.833 C 102.722 63.833,103.027 63.908,103.083 64.000 C 103.140 64.092,103.590 64.167,104.083 64.167 C 104.577 64.167,105.027 64.242,105.083 64.333 C 105.224 64.560,114.610 64.560,114.750 64.333 C 114.807 64.242,115.219 64.167,115.667 64.167 C 116.114 64.167,116.527 64.092,116.583 64.000 C 116.640 63.908,116.944 63.833,117.260 63.833 C 117.575 63.833,117.833 63.758,117.833 63.667 C 117.833 63.575,118.058 63.500,118.333 63.500 C 118.608 63.500,118.833 63.425,118.833 63.333 C 118.833 63.242,119.009 63.167,119.224 63.167 C 119.439 63.167,119.833 63.064,120.099 62.937 C 120.366 62.811,120.827 62.606,121.125 62.480 C 121.423 62.355,121.667 62.195,121.667 62.126 C 121.667 62.057,121.817 62.000,122.000 62.000 C 122.183 62.000,122.333 61.925,122.333 61.833 C 122.333 61.742,122.412 61.667,122.509 61.667 C 122.606 61.667,122.924 61.442,123.217 61.167 C 123.510 60.893,123.807 60.668,123.876 60.667 C 124.260 60.665,126.333 58.279,126.333 57.840 C 126.333 57.745,126.408 57.667,126.500 57.667 C 126.592 57.667,126.667 57.517,126.667 57.333 C 126.667 57.150,126.742 57.000,126.833 57.000 C 126.925 57.000,127.000 56.850,127.000 56.667 C 127.000 56.483,127.075 56.333,127.167 56.333 C 127.258 56.333,127.333 56.188,127.333 56.010 C 127.333 55.832,127.408 55.640,127.500 55.583 C 127.592 55.527,127.667 55.275,127.667 55.023 C 127.667 54.772,127.734 54.495,127.817 54.408 C 128.160 54.048,128.477 49.243,128.178 48.944 C 128.080 48.847,128.000 48.411,128.000 47.977 C 128.000 47.542,127.925 47.140,127.833 47.083 C 127.742 47.027,127.667 46.850,127.667 46.690 C 127.667 46.325,127.292 45.503,127.125 45.501 C 127.056 45.501,127.000 45.350,127.000 45.167 C 127.000 44.983,126.925 44.833,126.833 44.833 C 126.742 44.833,126.667 44.683,126.667 44.500 C 126.667 44.317,126.592 44.167,126.500 44.167 C 126.408 44.167,126.333 44.054,126.333 43.915 C 126.333 43.558,124.185 41.481,123.404 41.083 C 123.044 40.900,122.725 40.694,122.694 40.625 C 122.664 40.556,122.495 40.500,122.319 40.500 C 122.144 40.500,122.000 40.425,122.000 40.333 C 122.000 40.242,121.850 40.167,121.667 40.167 C 121.483 40.167,121.333 40.092,121.333 40.000 C 121.333 39.908,121.146 39.833,120.917 39.833 C 120.688 39.833,120.500 39.758,120.500 39.667 C 120.500 39.575,120.275 39.500,120.000 39.500 C 119.725 39.500,119.500 39.425,119.500 39.333 C 119.500 39.242,119.317 39.167,119.093 39.167 C 118.869 39.167,118.640 39.092,118.583 39.000 C 118.527 38.908,118.237 38.833,117.940 38.833 C 117.643 38.833,117.324 38.757,117.231 38.664 C 117.138 38.571,116.335 38.447,115.448 38.389 C 114.560 38.331,113.833 38.219,113.833 38.142 C 113.833 38.064,113.346 38.000,112.750 38.000 C 112.139 38.000,111.667 37.927,111.667 37.833 C 111.667 37.737,111.139 37.667,110.417 37.667 C 109.729 37.667,109.167 37.599,109.167 37.516 C 109.167 37.433,108.810 37.325,108.375 37.275 C 106.995 37.117,106.333 36.968,106.333 36.815 C 106.333 36.733,106.207 36.667,106.053 36.667 C 105.567 36.667,103.834 35.763,103.737 35.458 C 103.686 35.298,103.574 35.167,103.489 35.167 C 103.403 35.167,103.333 34.984,103.333 34.760 C 103.333 34.536,103.258 34.307,103.167 34.250 C 101.888 33.460,104.657 28.833,106.408 28.833 C 106.535 28.833,106.669 28.743,106.706 28.633 C 106.797 28.358,111.954 28.338,112.516 28.611 C 112.737 28.718,113.160 28.905,113.458 29.027 C 113.756 29.148,114.000 29.305,114.000 29.374 C 114.000 29.443,114.099 29.500,114.221 29.500 C 114.342 29.500,114.616 29.685,114.829 29.912 C 115.041 30.138,115.279 30.283,115.358 30.235 C 115.436 30.187,115.500 30.230,115.500 30.330 C 115.500 30.431,115.631 30.657,115.792 30.831 C 115.952 31.006,116.220 31.509,116.387 31.949 C 116.554 32.390,116.760 32.880,116.845 33.039 C 116.930 33.199,117.000 33.588,117.000 33.905 C 117.000 34.969,117.150 35.000,122.370 35.000 L 127.000 35.000 127.000 33.083 C 127.000 31.917,126.935 31.167,126.833 31.167 C 126.742 31.167,126.667 30.867,126.667 30.500 C 126.667 30.133,126.602 29.833,126.522 29.833 C 126.442 29.833,126.335 29.516,126.283 29.129 C 126.231 28.741,126.108 28.397,126.011 28.365 C 125.913 28.332,125.833 28.162,125.833 27.986 C 125.833 27.810,125.758 27.667,125.667 27.667 C 125.575 27.667,125.500 27.517,125.500 27.333 C 125.500 27.150,125.443 27.000,125.374 27.000 C 125.305 27.000,125.150 26.779,125.030 26.508 C 124.910 26.237,124.667 25.970,124.490 25.913 C 124.312 25.857,124.167 25.699,124.167 25.562 C 124.167 25.269,122.862 23.833,122.596 23.833 C 122.496 23.833,122.227 23.660,121.998 23.449 C 121.770 23.237,121.340 22.957,121.042 22.825 C 120.744 22.693,120.500 22.529,120.500 22.459 C 120.500 22.390,120.350 22.333,120.167 22.333 C 119.983 22.333,119.833 22.258,119.833 22.167 C 119.833 22.075,119.683 22.000,119.500 22.000 C 119.317 22.000,119.167 21.925,119.167 21.833 C 119.167 21.742,119.016 21.667,118.831 21.667 C 118.646 21.667,118.365 21.602,118.206 21.522 C 117.541 21.191,116.683 20.979,115.625 20.885 C 115.006 20.830,114.500 20.721,114.500 20.642 C 114.500 20.564,112.400 20.500,109.833 20.500 C 106.833 20.500,105.167 20.560,105.167 20.667 M142.583 32.167 C 142.527 32.258,142.185 32.333,141.823 32.333 C 141.462 32.333,141.167 32.408,141.167 32.500 C 141.167 32.592,140.942 32.667,140.667 32.667 C 140.392 32.667,140.167 32.742,140.167 32.833 C 140.167 32.925,139.942 33.000,139.667 33.000 C 139.392 33.000,139.167 33.059,139.167 33.132 C 139.167 33.205,138.837 33.352,138.434 33.460 C 138.031 33.568,137.599 33.752,137.475 33.870 C 137.351 33.987,137.040 34.192,136.784 34.324 C 135.821 34.821,133.000 37.582,133.000 38.028 C 133.000 38.128,132.868 38.332,132.707 38.480 C 132.546 38.629,132.303 38.975,132.166 39.250 C 132.029 39.525,131.879 39.787,131.832 39.833 C 131.665 39.998,131.165 41.591,131.166 41.958 C 131.166 42.165,131.092 42.333,131.000 42.333 C 130.908 42.333,130.833 42.591,130.833 42.907 C 130.833 43.222,130.758 43.527,130.667 43.583 C 130.575 43.640,130.500 44.094,130.500 44.593 C 130.500 45.092,130.425 45.500,130.333 45.500 C 130.229 45.500,130.167 46.469,130.167 48.073 C 130.167 49.609,130.234 50.689,130.333 50.750 C 130.425 50.807,130.500 51.299,130.500 51.843 C 130.500 52.392,130.574 52.833,130.667 52.833 C 130.758 52.833,130.833 53.133,130.833 53.500 C 130.833 53.867,130.899 54.167,130.978 54.167 C 131.058 54.167,131.167 54.434,131.220 54.762 C 131.333 55.462,132.626 58.167,132.848 58.167 C 132.931 58.167,133.000 58.280,133.000 58.419 C 133.000 58.722,135.915 61.667,136.215 61.667 C 136.331 61.667,136.532 61.813,136.660 61.991 C 136.789 62.169,136.947 62.283,137.011 62.243 C 137.076 62.203,137.222 62.282,137.335 62.419 C 137.448 62.555,137.607 62.667,137.688 62.667 C 137.769 62.667,138.224 62.854,138.699 63.083 C 139.174 63.313,139.698 63.500,139.865 63.500 C 140.031 63.500,140.167 63.575,140.167 63.667 C 140.167 63.758,140.387 63.833,140.657 63.833 C 140.926 63.833,141.193 63.908,141.250 64.000 C 141.307 64.092,141.644 64.167,142.000 64.167 C 142.356 64.167,142.693 64.242,142.750 64.333 C 142.814 64.437,144.304 64.500,146.667 64.500 C 149.029 64.500,150.520 64.437,150.583 64.333 C 150.640 64.242,150.982 64.167,151.343 64.167 C 151.704 64.167,152.000 64.092,152.000 64.000 C 152.000 63.908,152.262 63.833,152.583 63.833 C 152.904 63.833,153.167 63.758,153.167 63.667 C 153.167 63.575,153.317 63.500,153.500 63.500 C 153.683 63.500,153.833 63.425,153.833 63.333 C 153.833 63.242,154.017 63.167,154.241 63.167 C 154.776 63.167,156.676 62.172,157.184 61.625 C 157.334 61.465,157.510 61.333,157.577 61.333 C 157.911 61.333,160.491 58.425,160.497 58.042 C 160.499 57.927,160.558 57.833,160.629 57.833 C 160.700 57.833,160.895 57.552,161.064 57.208 C 161.232 56.865,161.437 56.453,161.518 56.294 C 161.600 56.135,161.667 55.891,161.667 55.752 C 161.667 55.614,161.742 55.500,161.833 55.500 C 161.925 55.500,162.000 55.317,162.000 55.093 C 162.000 54.869,162.075 54.640,162.167 54.583 C 162.258 54.527,162.333 54.334,162.333 54.155 C 162.333 53.975,162.401 53.699,162.483 53.539 C 163.150 52.250,163.379 46.378,162.845 44.250 C 162.380 42.392,161.934 41.000,161.804 41.000 C 161.728 41.000,161.667 40.864,161.667 40.698 C 161.667 40.322,160.667 38.312,160.325 38.000 C 160.275 37.954,160.051 37.654,159.827 37.333 C 159.313 36.599,157.883 35.167,157.663 35.167 C 157.572 35.167,157.262 34.942,156.974 34.667 C 156.686 34.392,156.349 34.167,156.225 34.167 C 156.101 34.167,156.000 34.109,156.000 34.039 C 156.000 33.885,154.763 33.333,154.416 33.333 C 154.279 33.333,154.167 33.258,154.167 33.167 C 154.167 33.075,153.984 33.000,153.760 33.000 C 153.536 33.000,153.307 32.925,153.250 32.833 C 153.193 32.742,152.889 32.667,152.573 32.667 C 152.258 32.667,152.000 32.592,152.000 32.500 C 152.000 32.408,151.742 32.333,151.427 32.333 C 151.111 32.333,150.807 32.258,150.750 32.167 C 150.686 32.063,149.140 32.000,146.667 32.000 C 144.193 32.000,142.647 32.063,142.583 32.167 M177.083 32.167 C 177.027 32.258,176.722 32.333,176.407 32.333 C 176.091 32.333,175.833 32.408,175.833 32.500 C 175.833 32.592,175.571 32.667,175.250 32.667 C 174.929 32.667,174.667 32.742,174.667 32.833 C 174.667 32.925,174.521 33.000,174.343 33.000 C 174.165 33.000,173.973 33.075,173.917 33.167 C 173.860 33.258,173.645 33.333,173.439 33.333 C 173.232 33.333,172.628 33.596,172.095 33.917 C 171.562 34.237,171.092 34.500,171.050 34.500 C 171.008 34.500,170.686 34.800,170.333 35.167 C 169.981 35.533,169.625 35.833,169.542 35.833 C 169.362 35.833,168.667 36.550,168.667 36.736 C 168.667 36.807,168.442 37.076,168.167 37.333 C 167.892 37.590,167.667 37.893,167.667 38.006 C 167.667 38.119,167.532 38.332,167.367 38.480 C 167.017 38.796,166.167 40.496,166.167 40.882 C 166.167 41.028,166.092 41.193,166.000 41.250 C 165.908 41.307,165.833 41.574,165.833 41.843 C 165.833 42.113,165.758 42.333,165.667 42.333 C 165.575 42.333,165.500 42.591,165.500 42.907 C 165.500 43.222,165.425 43.527,165.333 43.583 C 165.242 43.640,165.167 44.094,165.167 44.593 C 165.167 45.092,165.092 45.500,165.000 45.500 C 164.896 45.500,164.833 46.469,164.833 48.073 C 164.833 49.609,164.901 50.689,165.000 50.750 C 165.092 50.807,165.167 51.299,165.167 51.843 C 165.167 52.392,165.241 52.833,165.333 52.833 C 165.425 52.833,165.500 53.133,165.500 53.500 C 165.500 53.867,165.575 54.167,165.667 54.167 C 165.758 54.167,165.833 54.350,165.833 54.573 C 165.833 54.797,165.908 55.027,166.000 55.083 C 166.092 55.140,166.167 55.340,166.167 55.527 C 166.167 55.934,167.312 58.167,167.521 58.167 C 167.601 58.167,167.667 58.277,167.667 58.412 C 167.667 58.683,170.718 61.833,170.980 61.833 C 171.069 61.833,171.242 61.932,171.363 62.052 C 171.657 62.344,173.411 63.167,173.740 63.167 C 173.883 63.167,174.000 63.242,174.000 63.333 C 174.000 63.425,174.146 63.500,174.323 63.500 C 174.501 63.500,174.693 63.575,174.750 63.667 C 174.807 63.758,175.074 63.833,175.343 63.833 C 175.613 63.833,175.833 63.908,175.833 64.000 C 175.833 64.092,176.129 64.167,176.490 64.167 C 176.851 64.167,177.193 64.242,177.250 64.333 C 177.314 64.437,178.804 64.500,181.167 64.500 C 183.529 64.500,185.020 64.437,185.083 64.333 C 185.140 64.242,185.519 64.167,185.927 64.167 C 186.334 64.167,186.667 64.092,186.667 64.000 C 186.667 63.908,186.892 63.833,187.167 63.833 C 187.442 63.833,187.667 63.758,187.667 63.667 C 187.667 63.575,187.854 63.500,188.083 63.500 C 188.313 63.500,188.500 63.425,188.500 63.333 C 188.500 63.242,188.610 63.167,188.745 63.167 C 189.126 63.167,190.885 62.302,191.186 61.967 C 191.334 61.802,191.537 61.667,191.636 61.667 C 191.890 61.667,194.167 59.372,194.167 59.117 C 194.167 59.001,194.317 58.799,194.500 58.667 C 194.683 58.535,194.833 58.299,194.833 58.144 C 194.833 57.988,194.890 57.836,194.958 57.806 C 195.164 57.714,196.000 56.026,196.000 55.701 C 196.000 55.536,196.072 55.328,196.161 55.239 C 196.249 55.151,196.340 54.616,196.362 54.051 C 196.384 53.486,196.462 53.060,196.535 53.105 C 196.607 53.150,196.667 52.764,196.667 52.248 C 196.667 50.736,196.727 50.758,192.416 50.700 C 187.664 50.635,187.102 50.719,187.030 51.503 C 187.000 51.822,186.907 52.155,186.821 52.242 C 186.736 52.329,186.664 52.591,186.661 52.825 C 186.658 53.059,186.546 53.396,186.411 53.574 C 186.277 53.751,186.167 53.998,186.167 54.121 C 186.167 54.562,184.120 56.333,183.609 56.333 C 183.458 56.333,183.333 56.408,183.333 56.500 C 183.333 56.592,183.033 56.667,182.667 56.667 C 182.300 56.667,182.000 56.742,182.000 56.833 C 182.000 56.925,181.700 57.000,181.333 57.000 C 180.967 57.000,180.667 56.925,180.667 56.833 C 180.667 56.742,180.329 56.667,179.917 56.667 C 179.504 56.667,179.167 56.592,179.167 56.500 C 179.167 56.408,179.047 56.333,178.901 56.333 C 178.221 56.333,176.517 54.729,176.032 53.633 C 173.468 47.830,175.807 39.678,180.002 39.797 C 180.273 39.805,180.537 39.741,180.590 39.655 C 180.719 39.447,181.953 39.456,182.083 39.667 C 182.140 39.758,182.400 39.833,182.661 39.833 C 183.964 39.833,185.749 41.269,186.392 42.833 C 186.562 43.246,186.768 43.714,186.850 43.873 C 186.933 44.032,187.000 44.386,187.000 44.659 C 187.000 45.453,187.275 45.500,191.887 45.500 L 196.128 45.500 196.397 45.089 C 197.141 43.954,196.234 40.267,194.613 37.833 C 194.079 37.032,191.943 34.833,191.698 34.833 C 191.618 34.833,191.416 34.683,191.250 34.500 C 191.084 34.317,190.854 34.167,190.738 34.167 C 190.622 34.167,190.503 34.110,190.472 34.042 C 190.374 33.822,189.377 33.333,189.026 33.333 C 188.839 33.333,188.640 33.258,188.583 33.167 C 188.527 33.075,188.297 33.000,188.073 33.000 C 187.850 33.000,187.667 32.925,187.667 32.833 C 187.667 32.742,187.442 32.667,187.167 32.667 C 186.892 32.667,186.667 32.592,186.667 32.500 C 186.667 32.408,186.329 32.333,185.917 32.333 C 185.504 32.333,185.167 32.258,185.167 32.167 C 185.167 32.060,183.726 32.000,181.177 32.000 C 178.696 32.000,177.147 32.063,177.083 32.167 M223.750 32.167 C 223.693 32.258,223.318 32.333,222.917 32.333 C 222.515 32.333,222.140 32.408,222.083 32.500 C 222.027 32.592,221.797 32.667,221.573 32.667 C 221.350 32.667,221.167 32.742,221.167 32.833 C 221.167 32.925,220.942 33.000,220.667 33.000 C 220.392 33.000,220.167 33.075,220.167 33.167 C 220.167 33.258,220.009 33.333,219.817 33.333 C 219.458 33.333,218.460 33.819,218.361 34.042 C 218.331 34.110,218.207 34.167,218.087 34.167 C 217.829 34.167,215.833 36.081,215.833 36.329 C 215.833 36.423,215.758 36.500,215.667 36.500 C 215.575 36.500,215.500 36.612,215.500 36.750 C 215.500 36.887,215.425 37.000,215.333 37.000 C 215.242 37.000,215.167 37.150,215.167 37.333 C 215.167 37.517,215.092 37.667,215.000 37.667 C 214.908 37.667,214.833 37.817,214.833 38.000 C 214.833 38.183,214.758 38.333,214.667 38.333 C 214.575 38.333,214.500 38.554,214.500 38.823 C 214.500 39.093,214.425 39.360,214.333 39.417 C 214.242 39.473,214.165 39.834,214.163 40.218 C 214.160 40.602,214.084 41.238,213.994 41.630 C 213.903 42.022,213.876 42.528,213.933 42.755 L 214.036 43.167 218.907 43.167 L 223.777 43.167 223.953 42.792 C 224.050 42.585,224.223 42.102,224.338 41.718 C 224.577 40.920,225.404 39.833,225.772 39.833 C 225.908 39.833,225.973 39.758,225.917 39.667 C 225.858 39.573,225.995 39.500,226.230 39.500 C 226.459 39.500,226.693 39.425,226.750 39.333 C 226.807 39.241,227.554 39.167,228.417 39.167 C 229.279 39.167,230.027 39.241,230.083 39.333 C 230.140 39.425,230.332 39.500,230.510 39.500 C 230.688 39.500,230.833 39.575,230.833 39.667 C 230.833 39.758,230.933 39.833,231.054 39.833 C 231.322 39.833,232.000 40.528,232.000 40.802 C 232.000 40.911,232.075 41.000,232.167 41.000 C 232.258 41.000,232.333 41.146,232.333 41.323 C 232.333 41.501,232.408 41.693,232.500 41.750 C 233.141 42.146,232.206 44.153,231.375 44.164 C 231.260 44.165,231.167 44.242,231.167 44.333 C 231.167 44.427,230.694 44.500,230.083 44.500 C 229.472 44.500,229.000 44.573,229.000 44.667 C 229.000 44.768,228.250 44.833,227.083 44.833 C 225.917 44.833,225.167 44.899,225.167 45.000 C 225.167 45.100,224.503 45.167,223.510 45.167 C 222.585 45.167,221.807 45.240,221.750 45.333 C 221.693 45.425,221.323 45.500,220.928 45.500 C 220.532 45.500,219.890 45.612,219.500 45.750 C 219.110 45.887,218.613 46.000,218.396 46.000 C 218.178 46.000,218.000 46.075,218.000 46.167 C 218.000 46.258,217.850 46.333,217.667 46.333 C 217.483 46.333,217.333 46.408,217.333 46.500 C 217.333 46.592,217.183 46.667,217.000 46.667 C 216.817 46.667,216.667 46.742,216.667 46.833 C 216.667 46.925,216.571 47.000,216.453 47.000 C 216.336 47.000,216.132 47.150,216.000 47.333 C 215.868 47.517,215.666 47.667,215.552 47.667 C 215.165 47.667,214.045 48.860,213.660 49.682 C 213.449 50.132,213.214 50.500,213.138 50.500 C 213.062 50.500,213.000 50.683,213.000 50.907 C 213.000 51.131,212.925 51.360,212.833 51.417 C 212.742 51.473,212.667 51.778,212.667 52.093 C 212.667 52.409,212.592 52.667,212.500 52.667 C 212.398 52.667,212.333 53.469,212.333 54.740 C 212.333 55.943,212.403 56.857,212.500 56.917 C 212.592 56.973,212.667 57.273,212.667 57.583 C 212.667 57.893,212.742 58.193,212.833 58.250 C 212.925 58.307,213.000 58.536,213.000 58.760 C 213.000 58.984,213.075 59.167,213.167 59.167 C 213.258 59.167,213.333 59.317,213.333 59.500 C 213.333 59.683,213.408 59.833,213.500 59.833 C 213.592 59.833,213.667 59.905,213.667 59.992 C 213.667 60.270,214.679 61.661,215.100 61.961 C 215.323 62.120,215.666 62.381,215.862 62.542 C 216.058 62.702,216.319 62.833,216.442 62.833 C 216.566 62.833,216.667 62.908,216.667 63.000 C 216.667 63.092,216.817 63.167,217.000 63.167 C 217.183 63.167,217.333 63.242,217.333 63.333 C 217.333 63.425,217.483 63.500,217.667 63.500 C 217.850 63.500,218.000 63.575,218.000 63.667 C 218.000 63.758,218.225 63.833,218.500 63.833 C 218.775 63.833,219.000 63.908,219.000 64.000 C 219.000 64.092,219.258 64.167,219.573 64.167 C 219.889 64.167,220.193 64.242,220.250 64.333 C 220.313 64.436,221.721 64.500,223.917 64.500 C 226.113 64.500,227.520 64.436,227.583 64.333 C 227.640 64.242,227.944 64.167,228.260 64.167 C 228.575 64.167,228.833 64.092,228.833 64.000 C 228.833 63.908,228.976 63.833,229.151 63.833 C 229.467 63.833,230.744 63.235,231.107 62.917 C 231.211 62.825,231.509 62.600,231.769 62.417 C 232.350 62.007,233.000 61.334,233.000 61.142 C 233.000 61.064,233.075 61.000,233.167 61.000 C 233.258 61.000,233.333 61.225,233.333 61.500 C 233.333 61.775,233.408 62.000,233.500 62.000 C 233.592 62.000,233.667 62.146,233.667 62.324 C 233.667 62.502,233.824 62.914,234.016 63.240 L 234.366 63.833 238.922 63.833 C 243.980 63.833,243.924 63.847,243.488 62.730 C 243.384 62.466,243.269 62.025,243.230 61.750 C 243.192 61.475,243.114 60.987,243.057 60.667 C 243.000 60.346,242.969 59.766,242.989 59.379 C 243.009 58.992,242.983 58.607,242.932 58.524 C 242.880 58.441,242.818 54.258,242.792 49.228 L 242.746 40.083 242.346 39.083 C 241.661 37.372,240.725 35.836,240.365 35.834 C 240.245 35.834,240.188 35.767,240.239 35.685 C 240.289 35.604,240.087 35.350,239.790 35.121 C 239.493 34.891,239.032 34.514,238.765 34.282 C 238.498 34.050,237.973 33.733,237.598 33.579 C 237.223 33.425,236.786 33.232,236.627 33.150 C 236.468 33.067,236.187 33.000,236.002 33.000 C 235.818 33.000,235.667 32.925,235.667 32.833 C 235.667 32.742,235.404 32.667,235.083 32.667 C 234.762 32.667,234.500 32.592,234.500 32.500 C 234.500 32.408,234.167 32.333,233.760 32.333 C 233.353 32.333,232.973 32.258,232.917 32.167 C 232.852 32.062,231.140 32.000,228.333 32.000 C 225.526 32.000,223.815 32.062,223.750 32.167 M256.167 32.167 C 256.167 32.258,255.903 32.333,255.581 32.333 C 255.019 32.333,254.875 32.378,254.044 32.807 C 253.839 32.913,253.520 33.000,253.336 33.000 C 253.151 33.000,253.000 33.075,253.000 33.167 C 253.000 33.258,252.859 33.333,252.687 33.333 C 252.515 33.333,252.281 33.446,252.167 33.583 C 252.053 33.721,251.857 33.833,251.731 33.833 C 251.606 33.833,251.409 33.983,251.295 34.167 C 251.180 34.350,250.987 34.500,250.864 34.500 C 250.590 34.500,248.667 36.448,248.667 36.726 C 248.667 36.836,248.517 37.035,248.333 37.167 C 248.150 37.299,248.000 37.513,248.000 37.642 C 248.000 37.772,247.865 37.999,247.699 38.147 C 247.375 38.437,246.667 39.857,246.667 40.215 C 246.667 40.335,246.587 40.513,246.490 40.610 C 246.393 40.707,246.270 41.209,246.217 41.726 C 246.164 42.243,246.056 42.667,245.977 42.667 C 245.898 42.667,245.833 43.079,245.833 43.583 C 245.833 44.087,245.758 44.500,245.667 44.500 C 245.563 44.500,245.500 45.497,245.500 47.157 C 245.500 48.748,245.567 49.855,245.667 49.917 C 245.758 49.973,245.833 50.423,245.833 50.917 C 245.833 51.410,245.898 51.853,245.976 51.902 C 246.055 51.951,246.163 52.363,246.217 52.818 C 246.271 53.273,246.469 53.964,246.658 54.354 C 246.846 54.744,247.000 55.147,247.000 55.250 C 247.000 55.353,247.131 55.585,247.292 55.767 C 247.452 55.948,247.608 56.206,247.637 56.340 C 247.667 56.474,247.761 56.608,247.846 56.639 C 247.931 56.669,248.000 56.782,248.000 56.889 C 248.000 56.996,248.169 57.284,248.375 57.529 C 248.581 57.775,249.012 58.316,249.333 58.731 C 249.654 59.147,250.010 59.490,250.125 59.494 C 250.240 59.497,250.333 59.562,250.333 59.637 C 250.333 59.794,251.618 60.667,251.848 60.667 C 251.932 60.667,252.000 60.742,252.000 60.833 C 252.000 60.925,252.112 61.000,252.250 61.000 C 252.387 61.000,252.500 61.075,252.500 61.167 C 252.500 61.258,252.646 61.333,252.823 61.333 C 253.001 61.333,253.193 61.408,253.250 61.500 C 253.307 61.592,253.499 61.667,253.677 61.667 C 253.854 61.667,254.000 61.742,254.000 61.833 C 254.000 61.925,254.183 62.000,254.407 62.000 C 254.631 62.000,254.860 62.075,254.917 62.167 C 254.973 62.258,255.263 62.333,255.560 62.333 C 255.857 62.333,256.178 62.412,256.274 62.507 C 256.634 62.868,263.521 62.537,263.761 62.148 C 263.812 62.067,263.999 62.000,264.177 62.000 C 264.354 62.000,264.500 61.925,264.500 61.833 C 264.500 61.742,264.618 61.667,264.762 61.667 C 265.063 61.667,266.237 60.888,267.036 60.159 L 267.583 59.658 267.629 62.536 C 267.659 64.393,267.614 65.434,267.504 65.471 C 267.410 65.502,267.333 65.709,267.333 65.931 C 267.333 66.152,267.258 66.333,267.167 66.333 C 267.075 66.333,267.000 66.483,267.000 66.667 C 267.000 66.850,266.934 67.000,266.854 67.000 C 266.773 67.000,266.614 67.225,266.500 67.500 C 266.386 67.775,266.214 68.000,266.118 68.000 C 266.022 68.000,265.825 68.105,265.680 68.233 C 265.123 68.727,264.132 69.167,263.578 69.167 C 263.260 69.167,263.000 69.242,263.000 69.333 C 263.000 69.425,262.629 69.500,262.177 69.500 C 261.724 69.500,261.307 69.425,261.250 69.333 C 261.193 69.242,260.988 69.167,260.794 69.167 C 259.182 69.167,257.000 67.030,257.000 65.452 C 257.000 65.240,256.906 64.865,256.792 64.618 L 256.583 64.169 251.792 64.168 L 247.000 64.167 247.000 64.907 C 247.000 65.314,247.075 65.693,247.167 65.750 C 247.258 65.807,247.333 66.299,247.333 66.843 C 247.333 67.392,247.408 67.833,247.500 67.833 C 247.592 67.833,247.667 68.022,247.667 68.252 C 247.667 68.483,247.737 68.801,247.822 68.961 C 247.908 69.120,248.076 69.494,248.196 69.792 C 248.316 70.090,248.471 70.333,248.541 70.333 C 248.610 70.333,248.667 70.451,248.667 70.595 C 248.667 70.739,248.760 70.956,248.875 71.077 C 248.990 71.198,249.233 71.504,249.417 71.757 C 249.987 72.547,250.624 73.167,250.863 73.167 C 250.990 73.167,251.201 73.317,251.333 73.500 C 251.465 73.683,251.670 73.833,251.787 73.833 C 251.904 73.833,252.000 73.900,252.000 73.981 C 252.000 74.062,252.244 74.241,252.542 74.378 C 252.840 74.515,253.361 74.755,253.700 74.912 C 254.039 75.069,254.390 75.151,254.480 75.096 C 254.570 75.040,254.691 75.071,254.748 75.164 C 254.806 75.257,255.074 75.333,255.343 75.333 C 255.613 75.333,255.833 75.408,255.833 75.500 C 255.833 75.592,256.171 75.667,256.583 75.667 C 256.996 75.667,257.333 75.742,257.333 75.833 C 257.333 75.940,258.889 76.000,261.667 76.000 C 264.444 76.000,266.000 75.940,266.000 75.833 C 266.000 75.742,266.375 75.667,266.833 75.667 C 267.292 75.667,267.667 75.592,267.667 75.500 C 267.667 75.408,267.853 75.333,268.080 75.333 C 268.796 75.333,272.000 73.951,272.000 73.642 C 272.000 73.564,272.108 73.500,272.239 73.500 C 272.527 73.500,274.960 71.109,275.382 70.411 C 275.676 69.925,276.349 68.548,276.918 67.266 C 277.310 66.382,277.665 64.691,277.794 63.083 C 277.936 61.332,278.044 34.293,277.914 33.375 L 277.813 32.667 273.073 32.667 L 268.333 32.667 268.333 34.167 C 268.333 35.056,268.265 35.667,268.167 35.667 C 268.075 35.667,268.000 35.566,268.000 35.444 C 268.000 35.157,266.755 33.994,266.000 33.574 C 265.679 33.396,265.379 33.212,265.333 33.167 C 265.108 32.942,264.468 32.667,264.169 32.667 C 263.984 32.667,263.833 32.592,263.833 32.500 C 263.833 32.408,263.571 32.333,263.250 32.333 C 262.929 32.333,262.667 32.258,262.667 32.167 C 262.667 32.061,261.472 32.000,259.417 32.000 C 257.361 32.000,256.167 32.061,256.167 32.167 M314.000 32.167 C 314.000 32.258,313.625 32.333,313.167 32.333 C 312.708 32.333,312.333 32.408,312.333 32.500 C 312.333 32.592,312.150 32.667,311.927 32.667 C 311.703 32.667,311.473 32.742,311.417 32.833 C 311.360 32.925,311.131 33.000,310.907 33.000 C 310.683 33.000,310.500 33.075,310.500 33.167 C 310.500 33.258,310.343 33.333,310.151 33.333 C 309.792 33.333,308.793 33.819,308.694 34.042 C 308.664 34.110,308.528 34.167,308.392 34.167 C 308.078 34.167,305.833 36.442,305.833 36.761 C 305.833 36.892,305.758 37.000,305.667 37.000 C 305.575 37.000,305.500 37.150,305.500 37.333 C 305.500 37.517,305.425 37.667,305.333 37.667 C 305.242 37.667,305.167 37.817,305.167 38.000 C 305.167 38.183,305.092 38.333,305.000 38.333 C 304.908 38.333,304.833 38.543,304.833 38.800 C 304.833 39.057,304.765 39.338,304.682 39.425 C 304.522 39.592,304.344 40.861,304.285 42.250 L 304.250 43.083 309.187 43.127 L 314.124 43.172 314.295 42.711 C 315.056 40.663,315.203 40.399,315.824 39.958 C 316.179 39.706,316.585 39.500,316.725 39.500 C 316.865 39.500,317.027 39.425,317.083 39.333 C 317.140 39.242,317.852 39.167,318.667 39.167 C 319.481 39.167,320.193 39.242,320.250 39.333 C 320.307 39.425,320.504 39.500,320.688 39.500 C 320.873 39.500,321.119 39.594,321.234 39.708 C 321.350 39.823,321.645 40.066,321.889 40.248 C 322.133 40.430,322.333 40.674,322.333 40.790 C 322.333 40.905,322.408 41.000,322.500 41.000 C 322.592 41.000,322.667 41.183,322.667 41.407 C 322.667 41.631,322.742 41.860,322.833 41.917 C 323.026 42.036,323.063 43.333,322.873 43.333 C 322.804 43.333,322.556 43.502,322.323 43.708 C 321.603 44.347,321.204 44.500,320.262 44.500 C 319.762 44.500,319.307 44.575,319.250 44.667 C 319.191 44.761,318.359 44.833,317.323 44.833 C 316.219 44.833,315.500 44.899,315.500 45.000 C 315.500 45.101,314.806 45.167,313.750 45.167 C 312.694 45.167,312.000 45.233,312.000 45.333 C 312.000 45.425,311.694 45.500,311.319 45.500 C 310.573 45.500,308.450 46.008,308.361 46.208 C 308.331 46.277,308.162 46.333,307.986 46.333 C 307.810 46.333,307.667 46.408,307.667 46.500 C 307.667 46.592,307.517 46.667,307.333 46.667 C 307.150 46.667,307.000 46.742,307.000 46.833 C 307.000 46.925,306.888 47.000,306.751 47.000 C 306.615 47.000,306.409 47.150,306.295 47.333 C 306.180 47.517,305.994 47.667,305.881 47.667 C 305.609 47.667,304.167 49.008,304.167 49.261 C 304.167 49.370,304.054 49.553,303.917 49.667 C 303.779 49.781,303.667 50.015,303.667 50.187 C 303.667 50.359,303.592 50.500,303.500 50.500 C 303.408 50.500,303.333 50.683,303.333 50.907 C 303.333 51.131,303.258 51.360,303.167 51.417 C 303.075 51.473,303.000 51.778,303.000 52.093 C 303.000 52.409,302.925 52.667,302.833 52.667 C 302.731 52.667,302.667 53.469,302.667 54.740 C 302.667 55.943,302.737 56.857,302.833 56.917 C 302.925 56.973,303.000 57.273,303.000 57.583 C 303.000 57.893,303.075 58.193,303.167 58.250 C 303.258 58.307,303.333 58.536,303.333 58.760 C 303.333 58.984,303.408 59.167,303.500 59.167 C 303.592 59.167,303.667 59.273,303.667 59.403 C 303.667 59.701,304.207 60.664,304.375 60.666 C 304.444 60.666,304.500 60.764,304.500 60.883 C 304.500 61.153,305.692 62.333,305.965 62.333 C 306.076 62.333,306.167 62.390,306.168 62.458 C 306.169 62.626,307.133 63.167,307.430 63.167 C 307.560 63.167,307.667 63.242,307.667 63.333 C 307.667 63.425,307.817 63.500,308.000 63.500 C 308.183 63.500,308.333 63.575,308.333 63.667 C 308.333 63.758,308.516 63.833,308.740 63.833 C 308.964 63.833,309.193 63.908,309.250 64.000 C 309.307 64.092,309.607 64.167,309.917 64.167 C 310.227 64.167,310.527 64.242,310.583 64.333 C 310.647 64.436,312.026 64.500,314.167 64.500 C 316.307 64.500,317.687 64.436,317.750 64.333 C 317.807 64.242,318.107 64.167,318.417 64.167 C 318.727 64.167,319.027 64.092,319.083 64.000 C 319.140 63.908,319.369 63.833,319.593 63.833 C 319.817 63.833,320.000 63.758,320.000 63.667 C 320.000 63.575,320.150 63.500,320.333 63.500 C 320.517 63.500,320.667 63.425,320.667 63.333 C 320.667 63.242,320.760 63.167,320.875 63.167 C 321.216 63.166,322.989 61.692,323.340 61.117 L 323.665 60.583 323.666 61.229 C 323.666 61.584,323.864 62.316,324.106 62.854 L 324.546 63.833 329.211 63.833 L 333.877 63.833 333.761 63.042 C 333.697 62.606,333.566 61.837,333.471 61.333 C 333.372 60.813,333.243 56.161,333.174 50.583 C 333.054 40.987,332.962 39.434,332.482 38.925 C 332.400 38.838,332.333 38.639,332.333 38.482 C 332.333 38.129,331.654 36.833,331.469 36.833 C 331.394 36.833,331.333 36.739,331.333 36.624 C 331.333 35.967,328.073 33.333,327.260 33.333 C 327.114 33.333,326.846 33.258,326.664 33.167 C 326.482 33.075,326.184 32.925,326.002 32.833 C 325.820 32.742,325.483 32.667,325.252 32.667 C 325.022 32.667,324.833 32.592,324.833 32.500 C 324.833 32.408,324.458 32.333,324.000 32.333 C 323.542 32.333,323.167 32.258,323.167 32.167 C 323.167 32.060,321.528 32.000,318.583 32.000 C 315.639 32.000,314.000 32.060,314.000 32.167 M351.667 32.167 C 351.667 32.258,351.404 32.333,351.083 32.333 C 350.762 32.333,350.500 32.408,350.500 32.500 C 350.500 32.592,350.350 32.667,350.167 32.667 C 349.983 32.667,349.833 32.742,349.833 32.833 C 349.833 32.925,349.721 33.000,349.583 33.000 C 349.446 33.000,349.333 33.075,349.333 33.167 C 349.333 33.258,349.218 33.333,349.078 33.333 C 348.938 33.333,348.781 33.443,348.729 33.577 C 348.678 33.711,348.493 33.866,348.318 33.922 C 348.143 33.977,348.000 34.096,348.000 34.185 C 348.000 34.351,347.251 35.167,347.098 35.167 C 347.052 35.167,346.993 34.623,346.966 33.958 L 346.917 32.750 342.125 32.706 L 337.333 32.662 337.333 48.247 L 337.333 63.833 341.940 63.833 C 346.132 63.833,346.567 63.807,346.768 63.542 C 346.946 63.308,346.990 61.486,346.995 54.347 C 347.000 45.824,347.106 43.534,347.519 43.092 C 347.600 43.005,347.667 42.833,347.667 42.710 C 347.667 42.494,348.192 41.667,348.628 41.198 C 350.077 39.636,353.082 39.885,353.860 41.631 C 354.053 42.063,354.275 42.547,354.355 42.706 C 354.435 42.865,354.500 47.684,354.500 53.414 L 354.500 63.833 359.333 63.833 C 361.992 63.833,364.182 63.815,364.201 63.792 C 364.219 63.769,364.280 59.288,364.336 53.833 C 364.418 45.762,364.482 43.808,364.677 43.333 C 364.968 42.625,365.686 41.438,365.869 41.361 C 365.942 41.330,365.960 41.236,365.908 41.152 C 365.856 41.069,365.931 41.000,366.073 41.000 C 366.216 41.000,366.333 40.943,366.333 40.872 C 366.333 40.634,367.958 40.167,368.788 40.167 C 370.493 40.167,371.391 41.024,371.623 42.875 C 371.666 43.219,371.769 43.500,371.851 43.500 C 371.937 43.500,372.000 47.797,372.000 53.669 L 372.000 63.838 376.792 63.794 L 381.583 63.750 381.572 52.667 C 381.561 41.557,381.481 39.690,380.943 38.000 C 380.598 36.913,380.108 35.833,379.961 35.833 C 379.891 35.833,379.833 35.740,379.833 35.625 C 379.833 35.339,379.075 34.480,378.941 34.614 C 378.882 34.674,378.833 34.626,378.833 34.508 C 378.833 34.205,377.810 33.339,377.448 33.336 C 377.283 33.335,377.193 33.258,377.250 33.167 C 377.307 33.075,377.199 33.000,377.010 33.000 C 376.821 33.000,376.667 32.925,376.667 32.833 C 376.667 32.742,376.479 32.667,376.250 32.667 C 376.021 32.667,375.833 32.592,375.833 32.500 C 375.833 32.408,375.613 32.333,375.343 32.333 C 375.074 32.333,374.807 32.258,374.750 32.167 C 374.688 32.066,373.470 32.000,371.657 32.000 C 369.774 32.000,368.667 32.062,368.667 32.167 C 368.667 32.258,368.442 32.333,368.167 32.333 C 367.892 32.333,367.667 32.408,367.667 32.500 C 367.667 32.592,367.493 32.667,367.281 32.667 C 367.070 32.667,366.745 32.807,366.560 32.980 C 366.376 33.152,366.061 33.344,365.862 33.408 C 365.663 33.471,365.500 33.592,365.500 33.678 C 365.500 33.763,365.393 33.833,365.263 33.833 C 364.952 33.833,363.667 35.148,363.667 35.466 C 363.667 35.602,363.535 35.813,363.375 35.935 C 363.052 36.180,362.598 36.246,362.733 36.028 C 362.930 35.709,361.611 34.115,360.708 33.581 C 360.410 33.405,360.167 33.203,360.167 33.131 C 360.167 33.059,360.017 33.000,359.833 33.000 C 359.650 33.000,359.500 32.925,359.500 32.833 C 359.500 32.742,359.275 32.667,359.000 32.667 C 358.725 32.667,358.500 32.592,358.500 32.500 C 358.500 32.408,358.317 32.333,358.093 32.333 C 357.869 32.333,357.640 32.258,357.583 32.167 C 357.521 32.066,356.332 32.000,354.573 32.000 C 352.747 32.000,351.667 32.062,351.667 32.167 M51.913 32.494 C 51.968 32.582,51.653 32.838,51.215 33.061 C 49.799 33.782,49.305 34.586,48.590 37.333 C 46.450 45.558,42.428 49.353,36.093 49.125 C 31.605 48.964,31.228 48.613,31.382 44.750 C 31.682 37.213,36.508 33.198,46.167 32.450 C 47.922 32.314,51.820 32.344,51.913 32.494 M296.250 32.500 C 296.193 32.592,296.001 32.667,295.823 32.667 C 295.646 32.667,295.500 32.742,295.500 32.833 C 295.500 32.925,295.349 33.000,295.163 33.000 C 294.536 33.000,292.667 34.383,292.667 34.848 C 292.667 34.956,292.530 35.166,292.363 35.314 C 292.197 35.462,291.991 35.733,291.907 35.917 C 291.798 36.154,291.729 35.749,291.668 34.500 L 291.583 32.750 286.792 32.706 L 282.000 32.662 282.000 48.247 L 282.000 63.833 286.992 63.833 L 291.985 63.833 292.072 63.292 C 292.120 62.994,292.187 59.225,292.221 54.917 C 292.287 46.462,292.300 46.340,293.293 44.417 C 293.599 43.825,295.144 42.333,295.452 42.333 C 295.570 42.333,295.667 42.258,295.667 42.167 C 295.667 42.075,295.817 42.000,296.000 42.000 C 296.183 42.000,296.333 41.925,296.333 41.833 C 296.333 41.742,296.558 41.667,296.833 41.667 C 297.108 41.667,297.333 41.592,297.333 41.500 C 297.333 41.396,298.300 41.333,299.900 41.333 L 302.467 41.333 302.620 40.875 C 302.917 39.984,302.789 32.932,302.470 32.613 C 302.144 32.287,296.446 32.183,296.250 32.500 M198.874 48.206 L 198.917 63.750 203.867 63.794 L 208.817 63.838 208.914 63.294 C 208.968 62.995,208.990 56.000,208.964 47.750 L 208.917 32.750 203.874 32.706 L 198.832 32.662 198.874 48.206 M263.083 39.333 C 263.140 39.425,263.369 39.500,263.593 39.500 C 263.817 39.500,264.000 39.557,264.000 39.626 C 264.000 39.695,264.244 39.860,264.542 39.992 C 264.840 40.123,265.270 40.404,265.498 40.616 C 265.727 40.827,265.970 41.000,266.040 41.000 C 266.110 41.000,266.167 41.146,266.167 41.323 C 266.167 41.501,266.237 41.690,266.323 41.743 C 266.558 41.889,267.000 42.841,267.000 43.202 C 267.000 43.377,267.075 43.473,267.167 43.417 C 267.267 43.355,267.333 43.578,267.333 43.980 C 267.333 44.347,267.408 44.693,267.500 44.750 C 267.599 44.811,267.667 45.863,267.667 47.343 C 267.667 48.892,267.604 49.833,267.500 49.833 C 267.408 49.833,267.333 50.046,267.333 50.306 C 267.333 50.896,266.261 53.130,265.777 53.548 C 265.579 53.719,265.187 54.059,264.907 54.304 C 264.225 54.901,263.741 55.167,263.336 55.167 C 263.151 55.167,263.000 55.242,263.000 55.333 C 263.000 55.431,262.444 55.500,261.667 55.500 C 260.889 55.500,260.333 55.431,260.333 55.333 C 260.333 55.242,260.122 55.167,259.865 55.167 C 259.607 55.167,259.235 55.017,259.038 54.833 C 258.842 54.650,258.641 54.500,258.593 54.500 C 258.087 54.500,256.668 52.474,256.199 51.083 C 255.566 49.206,255.556 44.089,256.184 43.425 C 256.266 43.338,256.335 43.113,256.337 42.925 C 256.339 42.737,256.487 42.396,256.667 42.167 C 256.846 41.938,256.994 41.656,256.996 41.542 C 256.998 41.427,257.057 41.333,257.127 41.333 C 257.197 41.333,257.331 41.165,257.425 40.958 C 257.519 40.752,257.687 40.602,257.798 40.625 C 257.909 40.648,258.000 40.590,258.000 40.497 C 258.000 40.404,258.262 40.203,258.583 40.050 C 258.904 39.897,259.167 39.710,259.167 39.636 C 259.167 39.561,259.350 39.500,259.573 39.500 C 259.797 39.500,260.027 39.425,260.083 39.333 C 260.140 39.242,260.815 39.167,261.583 39.167 C 262.352 39.167,263.027 39.242,263.083 39.333 M147.417 39.667 C 147.473 39.758,147.745 39.833,148.020 39.833 C 149.286 39.833,151.112 41.135,151.768 42.505 C 151.942 42.867,152.140 43.164,152.208 43.165 C 152.277 43.166,152.333 43.350,152.333 43.573 C 152.333 43.797,152.408 44.027,152.500 44.083 C 152.592 44.140,152.667 44.440,152.667 44.750 C 152.667 45.060,152.742 45.360,152.833 45.417 C 152.933 45.478,153.000 46.585,153.000 48.177 C 153.000 49.837,152.937 50.833,152.833 50.833 C 152.742 50.833,152.667 51.165,152.667 51.569 C 152.667 51.974,152.592 52.331,152.501 52.361 C 152.411 52.392,152.319 52.623,152.298 52.875 C 152.278 53.127,152.202 53.333,152.130 53.333 C 152.059 53.333,152.000 53.446,152.000 53.583 C 152.000 53.721,151.936 53.833,151.859 53.833 C 151.781 53.833,151.588 54.121,151.429 54.473 C 151.271 54.824,151.015 55.198,150.862 55.303 C 149.697 56.102,149.276 56.333,148.993 56.333 C 148.813 56.333,148.667 56.408,148.667 56.500 C 148.667 56.592,148.371 56.667,148.010 56.667 C 147.649 56.667,147.307 56.742,147.250 56.833 C 147.193 56.925,146.889 57.000,146.573 57.000 C 146.258 57.000,146.000 56.925,146.000 56.833 C 146.000 56.742,145.662 56.667,145.250 56.667 C 144.837 56.667,144.500 56.592,144.500 56.500 C 144.500 56.408,144.350 56.333,144.167 56.333 C 143.983 56.333,143.833 56.258,143.833 56.167 C 143.833 56.075,143.730 56.000,143.603 56.000 C 142.962 56.000,141.397 54.061,140.965 52.730 C 139.779 49.077,140.214 43.725,141.844 41.928 C 142.099 41.647,142.446 41.256,142.615 41.061 C 143.046 40.562,144.623 39.833,145.271 39.833 C 145.570 39.833,145.860 39.758,145.917 39.667 C 145.973 39.575,146.311 39.500,146.667 39.500 C 147.023 39.500,147.360 39.575,147.417 39.667 M322.843 52.302 C 322.746 52.335,322.667 52.617,322.667 52.931 C 322.667 53.244,322.592 53.500,322.500 53.500 C 322.408 53.500,322.333 53.650,322.333 53.833 C 322.333 54.017,322.258 54.167,322.167 54.167 C 322.075 54.167,322.000 54.317,322.000 54.500 C 322.000 54.683,321.930 54.833,321.845 54.833 C 321.759 54.833,321.647 54.965,321.596 55.125 C 321.460 55.548,320.821 56.216,320.292 56.488 C 320.040 56.617,319.833 56.785,319.833 56.861 C 319.833 56.938,319.683 57.000,319.500 57.000 C 319.317 57.000,319.167 57.075,319.167 57.167 C 319.167 57.258,318.979 57.333,318.750 57.333 C 318.521 57.333,318.333 57.408,318.333 57.500 C 318.333 57.598,317.753 57.667,316.927 57.667 C 316.153 57.667,315.473 57.592,315.417 57.500 C 315.360 57.408,315.131 57.333,314.907 57.333 C 314.683 57.333,314.500 57.277,314.499 57.208 C 314.498 57.140,314.287 56.963,314.029 56.817 C 311.649 55.463,313.088 51.333,315.938 51.333 C 316.236 51.333,316.527 51.258,316.583 51.167 C 316.642 51.071,317.498 51.000,318.583 51.000 C 319.668 51.000,320.524 50.929,320.583 50.833 C 320.640 50.742,321.038 50.661,321.468 50.655 C 321.898 50.649,322.400 50.584,322.583 50.512 C 322.889 50.392,322.921 50.458,322.968 51.313 C 322.998 51.863,322.947 52.268,322.843 52.302 M232.667 51.417 C 232.667 51.921,232.592 52.333,232.500 52.333 C 232.408 52.333,232.333 52.544,232.333 52.801 C 232.333 53.213,231.886 54.255,231.284 55.246 C 230.981 55.744,229.964 56.667,229.717 56.667 C 229.598 56.667,229.499 56.723,229.499 56.792 C 229.497 56.961,228.673 57.333,228.300 57.333 C 228.135 57.333,228.000 57.408,228.000 57.500 C 228.000 57.598,227.417 57.667,226.583 57.667 C 225.750 57.667,225.167 57.598,225.167 57.500 C 225.167 57.408,224.942 57.333,224.667 57.333 C 224.392 57.333,224.167 57.271,224.167 57.195 C 224.167 57.119,223.980 56.956,223.752 56.834 C 222.240 56.025,222.341 52.075,223.875 52.012 C 224.035 52.005,224.167 51.925,224.167 51.833 C 224.167 51.742,224.312 51.667,224.490 51.667 C 224.668 51.667,224.860 51.592,224.917 51.500 C 224.973 51.408,225.315 51.333,225.677 51.333 C 226.038 51.333,226.333 51.258,226.333 51.167 C 226.333 51.065,227.072 51.000,228.217 51.000 C 229.252 51.000,230.171 50.929,230.258 50.843 C 230.345 50.757,230.792 50.658,231.250 50.623 C 231.708 50.589,232.215 50.547,232.375 50.530 C 232.621 50.505,232.667 50.643,232.667 51.417 " stroke="none" fill="#fbfbfb" fill-rule="evenodd"></path></g></svg>